<svg width="498" height="957" viewBox="0 0 498 957" fill="none" xmlns="http://www.w3.org/2000/svg">
<path d="M0.227638 226.246C-2.66921 180.865 22.5189 137.866 50.8159 104.597C115.175 28.9375 223.609 -14.629 321.839 4.48748C397.158 19.1436 462.009 74.5737 485.988 147.368C511.129 223.681 494.268 317.198 428.496 367.526C422.143 372.39 415.5 376.72 408.632 380.624C410.929 394.367 406.355 408.917 398.18 421.504C409.975 438.997 422.602 456.596 430.406 476.309C435.002 487.921 442.193 506.044 432.404 516.969C424.7 525.574 409.634 518.094 401.842 513.982C387.105 506.209 373.893 494.666 362.05 482.709C355.094 516.372 339.516 548.758 316.519 572.059C316.527 572.08 316.536 572.096 316.539 572.12C329.816 643.05 234.665 645.689 187.747 639.385C182.633 638.7 176.213 637.283 169.077 635.23C164.502 640.498 160.188 645.974 155.902 651.469C161.326 652.269 166.739 653.129 172.129 654.136C176.074 651.55 180.819 649.813 186.412 649.399C209.149 647.706 224.008 665.342 221.792 686.597C255.175 690.206 287.21 707.345 308.763 737.644C345.28 788.971 340.49 863.665 300.942 912.267C253.507 970.563 173.996 969.804 118.683 922.053C67.4503 877.828 70.4601 800.684 102.505 746.553C92.0535 735.635 81.6558 724.668 71.5412 713.449C71.0913 713.583 70.6114 713.677 70.0966 713.716C29.2165 716.972 7.94134 658.603 47.3349 640.099C60.8467 633.751 77.8087 635.732 89.6159 644.608C96.1622 644.998 102.701 645.521 109.235 646.086C112.174 639.872 117.486 634.031 121.286 628.503C123.502 625.284 125.759 622.086 128.084 618.945C91.7943 600.242 61.6054 570.836 93.4262 538.362C85.3087 520.719 81.0356 500.827 79.1352 481.337C60.7372 503.302 38.7317 522.155 21.1445 506.338C8.98408 495.4 15.8553 471.185 19.6425 458.424C26.9313 433.865 39.9513 410.34 53.6743 388.813C52.3512 386.273 51.1342 383.719 50.1352 381.15C42.359 361.124 51.3206 346.777 66.1384 337.88C30.2677 309.564 3.24765 273.527 0.227638 226.246ZM127.674 56.2091C81.3428 83.597 39.9402 126.47 20.7451 177.262C17.6695 185.399 15.5705 193.427 14.3158 201.326C36.1923 214.066 66.2272 219.793 91.0869 221.863C91.4205 199.284 94.1677 177.149 98.8838 157.414C111.868 103.108 154.939 68.3892 205.142 49.3788C267.092 25.9277 355.235 29.5558 417.281 65.423C334.888 -8.13054 217.77 2.95394 127.674 56.2091ZM465.467 303.963C503.542 229.882 484.271 134.255 427.834 75.5607C368.945 34.803 279.914 29.9039 215.481 49.1307C160.878 65.4265 117.392 102.54 101.892 158.242C94.5534 184.603 95.5234 212.556 96.2906 239.636C97.1433 269.788 101.267 299.892 114.511 327.102C114.884 327.131 115.226 327.208 115.566 327.285C115.761 327.302 115.942 327.289 116.142 327.322C143.213 331.673 160.532 351.492 166.796 375.662C266.284 407.271 410.39 411.119 465.467 303.963ZM113.686 339.525C101.194 338.734 84.9759 340.763 72.8677 347.696C74.0608 365.368 89.3422 381.64 101.039 393.3C113.127 405.358 132.213 422.247 150.474 423.314C154.163 416.699 156.311 408.224 157.021 399.749C159.436 370.965 142.438 344.619 113.686 339.525ZM292.642 476.716C279.316 479.74 264.724 477.255 251.429 475.242C238.976 473.354 223.804 472.056 211.304 468.022C211.455 471.126 212.226 474.012 214.108 476.391C219.554 483.27 235.534 485.202 243.478 486.825C265.488 491.322 301.672 494.001 319.879 478.258C329.106 470.278 327.899 450.365 328.553 439.545C329.227 428.432 328.715 417.311 327.23 406.296C323.24 406.787 319.23 407.205 315.203 407.526C319.474 434.403 324.852 469.402 292.642 476.716ZM214.014 447.225C213.759 451.438 212.376 456.588 211.681 461.65C228.703 468.119 252.909 469.771 270.054 471.285C282.214 472.356 296.326 472.283 305.917 463.699C317.643 453.207 312.273 425.279 309.124 407.94C276.102 409.904 242.235 406.535 210.358 399.96C214.149 415.469 215.001 431.062 214.014 447.225ZM388.79 390.382C386.252 405.067 377.558 417.377 365.395 425.901C365.739 429.452 365.947 433.048 366.073 436.669C382.077 426.851 397.207 405.607 396.692 386.839C394.082 388.076 391.452 389.258 388.79 390.382ZM425.362 504.437C425.39 495.102 414.171 470.786 413.149 468.789C406.571 455.911 398.335 443.893 390.21 431.916C386.626 435.937 382.725 439.599 378.627 442.768C399.317 458.253 417.78 479.541 425.362 504.437ZM396.42 495.776C402.918 500.499 414.379 509.506 423.167 508.098C416.205 482.337 397.268 460.38 375.992 444.689C372.741 446.994 369.413 448.97 366.052 450.586C365.825 456.186 365.346 461.821 364.623 467.454C374.421 477.803 384.881 487.386 396.42 495.776ZM364.542 418.801C372.911 412.206 379.259 403.426 381.93 393.138C374.973 395.772 367.854 398.041 360.605 399.953C362.293 406.045 363.625 412.336 364.542 418.801ZM348.445 402.81C345.514 403.418 342.559 403.974 339.598 404.482C343.055 427.657 345.183 458.346 334.563 478.286C322.509 500.917 292.036 502.387 269.223 501.668C249.136 501.036 216.995 499.989 203.236 482.608C198.244 476.305 198.799 467.769 199.903 460.314C203.093 438.766 202.819 417.806 196.583 396.883C187.196 394.643 178.019 392.155 169.138 389.456C169.528 394.16 169.56 398.941 169.158 403.735C167.097 428.327 151.633 452.245 127.064 448.199C108.833 487.877 116.342 541.322 144.027 574.779C174.003 591.014 210.618 596.75 244.302 594.35C328.297 588.371 368.463 475.157 348.445 402.81ZM192.065 661.677C174.569 659.996 166.951 676.747 173.846 690.791C185.446 687.397 197.427 685.798 209.38 685.887C211.08 674.085 204.879 662.907 192.065 661.677ZM288.798 907.54C324.403 867.224 331.24 803.404 306.093 756.404C293.84 733.509 273.083 717.274 249.726 707.038C266.253 718.45 280.072 734.337 289.01 751.813C309.223 791.334 306.296 842.003 284.837 880.196C264.791 915.885 222.589 936.186 182.679 936.036C170.364 935.991 158.494 933.181 147.319 928.556C192.524 955.657 252.208 948.975 288.798 907.54ZM116.35 901.48C117.007 902.134 117.656 902.791 118.347 903.436C135.906 919.821 158.955 928.515 182.678 929.802C219.43 931.803 255.987 911.026 276.683 881.466C299.091 849.459 300.543 805.478 289.391 769.266C278.712 734.604 246.815 703.709 210.846 696.83C182.268 695.34 154.907 707.747 133.689 727.493C147.992 742.806 162.351 758.076 176.213 773.787C182.102 772.221 188.494 772.509 194.671 775.277C230.503 791.314 211.069 850.039 172.406 836.483C172.076 836.369 171.792 836.215 171.508 836.065C171.31 835.992 171.114 835.947 170.916 835.854C156.694 829.152 150.249 815.361 152.758 800.754C139.497 785.371 125.527 770.622 111.479 755.941C85.7021 801.748 82.5769 859.229 116.35 901.48ZM165.473 800.535C161.994 811.079 167.226 820 176.508 824.7C199.849 832.046 211.201 798.655 190.929 787.185C179.557 780.749 168.927 790.059 165.473 800.535ZM71.6387 694.833C99.3439 726.657 129.942 755.888 157.749 787.595C159.682 784.567 162.05 781.881 164.775 779.673C136.283 747.624 105.829 717.322 78.2782 684.438C75.4575 681.247 71.9996 680.492 69.1549 682.984C65.2463 686.411 68.7804 690.998 71.6387 694.833ZM55.0145 650.45C27.0569 657.91 38.0243 693.055 60.1685 700.097C57.323 696.018 55.0572 692.003 54.8716 686.727C54.7049 682.02 57.0723 677.408 60.3352 674.169C67.535 667.03 78.9078 667.837 85.9168 674.53C86.3239 674.827 86.7207 675.175 87.0945 675.621C88.1089 676.831 89.1523 678.012 90.171 679.213C94.1806 659.249 75.8184 644.899 55.0145 650.45ZM125.205 718.373C136.314 708.142 148.783 700.324 161.994 694.939C161.665 694.195 161.414 693.44 161.142 692.686C140.958 691.379 120.766 689.451 100.639 687.487C100.339 688.411 100.018 689.325 99.6681 690.226C108.033 699.74 116.585 709.088 125.205 718.373ZM107.676 658.43C105.187 658.215 102.697 658.003 100.209 657.809C102.574 663.264 103.406 669.259 103.028 675.249C121.627 677.06 140.272 678.809 158.914 680.058C158.934 674.75 160.132 669.595 162.437 665.049C157.29 664.172 152.132 663.365 146.961 662.663C145.833 664.035 144.734 665.423 143.577 666.771C136.669 674.81 126.915 675.61 117.681 671.235C112.408 668.735 108.868 663.841 107.676 658.43ZM126.501 642.877C122.041 649.375 114.856 657.512 126.148 661.32C133.43 663.776 138.969 652.346 142.646 647.658C147.054 642.04 151.609 636.529 156.247 631.09C150.776 629.143 145.11 626.897 139.452 624.385C134.796 630.266 130.737 636.708 126.501 642.877ZM127.917 606.681C149.725 620.038 175.911 625.875 201.039 628.505C229.467 631.48 284.097 630.57 300.572 603.052C278.475 622.903 231.773 622.432 206.567 620.285C183.311 618.309 112.863 602.885 95.4678 572.977C99.9768 586.74 115.408 599.018 127.917 606.681ZM211.815 617.619C238.356 619.88 288.376 619.036 304.48 593.421C305.269 590 305.529 586.241 305.301 582.186C289.74 594.678 271.466 603.304 250.703 606.112C211.353 611.433 168.643 602.285 133.908 583.472C119.029 575.416 107.932 563.779 99.6766 550.183C97.0218 553.641 95.4267 557.111 94.6835 560.553C96.4941 597.695 185.697 615.396 211.815 617.619ZM90.6003 467.64C92.4272 507.761 103.046 547.801 136.656 570.314C112.372 535.998 106.783 485.823 123.956 447.566C122.616 447.224 121.273 446.876 119.884 446.368C116.426 445.107 112.916 443.576 109.4 441.818C104.871 447.135 98.291 456.616 90.5028 466.954C90.5361 467.186 90.5883 467.396 90.6003 467.64ZM50.8364 490.994C57.1364 485.986 62.3562 479.391 67.5435 473.302C78.0952 460.919 87.6941 447.809 98.3851 435.552C89.7322 430.056 81.3384 423.33 73.8992 415.85C53.8248 437.833 40.1746 467.197 34.3749 496.437C39.0259 497.493 45.2163 495.462 50.8364 490.994ZM27.252 482.361C26.5703 489.03 28.3604 493.162 31.4566 495.199C37.4059 465.57 51.3941 435.824 71.7524 413.594C67.8113 409.446 64.1703 405.098 60.951 400.614C45.4798 425.324 30.2181 453.463 27.252 482.361ZM60.8903 358.37C55.4234 366.455 62.2186 378.501 66.3137 385.483C77.9943 405.399 98.4544 421.85 118.72 432.317C130.9 438.608 140.004 436.103 146.299 429.204C128.826 426.602 112.887 412.319 100.333 401.186C86.9551 389.323 69.9828 371.013 66.9988 351.755C64.6655 353.698 62.5795 355.874 60.8903 358.37ZM78.7863 332.005C89.2259 328.327 100.781 326.647 111.033 326.931C96.8926 297.152 90.8732 260.643 91.0391 224.975C65.9109 222.893 36.1762 217.337 13.8378 204.641C7.28723 255.498 36.5549 300.565 78.7863 332.005Z" fill="#2D2D2D"/>
<path d="M136.335 252.105C129.37 202.105 137.934 147.645 171.408 113.418C169.244 108.369 167.028 103.202 167.936 97.6131C168.975 91.2575 172.713 86.8981 177.889 83.3145C182.593 80.055 190.288 76.9178 196.08 78.359C201.953 79.8198 205.789 83.9483 209.576 88.3068C211.836 87.4173 214.145 86.5817 216.524 85.8145C252.557 74.1817 293.479 75.5579 330.75 78.3179C346.887 79.511 362.955 82.0273 378.135 86.9101C381.273 83.8293 383.663 79.9891 387.872 77.7697C393.36 74.8797 399.857 77.088 404.883 79.7539C410.265 82.6114 415.66 87.8432 418.314 93.3145C420.509 97.8398 418.929 102.832 417.164 107.325C417.8 107.832 418.455 108.312 419.088 108.835C449.577 134.122 456.806 176.901 457.821 214.2C458.851 252.084 452.334 294.766 427.754 325.061C395.893 364.337 345.215 373.729 297.091 373.433C257.522 372.475 214.99 365.559 183.271 339.977C155.772 317.796 141.148 286.693 136.335 252.105ZM198.397 85.9599C193.1 82.0991 185.864 85.8341 181.033 88.6951C172.453 93.7814 173.671 101.265 176.329 108.68C184.167 101.63 193.201 95.5955 203.56 90.8504C201.977 89.0731 200.32 87.3642 198.397 85.9599ZM374.251 153.948C339.166 140.173 322.424 177.055 319.823 215.194C316.126 269.391 334.207 293.301 354.505 293.659C377.513 294.068 403.38 264.221 403.652 213.928C403.799 188.541 396.68 162.759 374.251 153.948ZM412.132 94.8155C409.762 89.925 403.327 85.5861 398.53 83.577C391.866 80.7888 388.071 84.7787 384.256 89.0406C394.025 92.6696 403.357 97.401 412.035 103.497C413.036 100.649 413.543 97.7217 412.132 94.8155ZM297.09 360.965C333.197 361.188 369.831 356.402 399.943 335.009C434.134 310.713 443.745 266.286 445.275 226.965C446.732 189.58 440.802 148.124 413.783 121.251C426.43 141.033 430.855 166.071 432.668 190.265C435.782 231.75 432.349 283.174 401.681 314.804C371.687 345.728 327.751 352.797 286.234 350.338C254.254 348.443 220.389 345.042 191.368 330.687C220.623 353.582 260.821 360.088 297.09 360.965ZM234.658 307.397C264.295 307.921 297.617 269.476 297.963 204.69C298.154 171.985 288.989 138.78 260.091 127.433C214.893 109.688 193.332 157.195 189.979 206.322C185.227 276.132 208.511 306.935 234.658 307.397Z" fill="#2D2D2D"/>
</svg>
