<?xml version="1.0" standalone="no"?>
<!DOCTYPE svg PUBLIC "-//W3C//DTD SVG 20010904//EN"
 "http://www.w3.org/TR/2001/REC-SVG-20010904/DTD/svg10.dtd">
<svg version="1.0" xmlns="http://www.w3.org/2000/svg"
 width="2048.000000pt" height="1536.000000pt" viewBox="0 0 2048.000000 1536.000000"
 preserveAspectRatio="xMidYMid meet">

<g transform="translate(0.000000,1536.000000) scale(0.100000,-0.100000)"
fill="#000000" stroke="none">
<path d="M17771 13600 c-180 -49 -319 -167 -475 -405 -221 -335 -456 -782
-612 -1162 -156 -380 -206 -572 -278 -1063 -29 -193 -48 -257 -90 -306 -28
-33 -38 -37 -97 -43 -47 -5 -78 -15 -107 -34 -97 -63 -153 -244 -122 -390 16
-79 59 -126 148 -163 37 -15 69 -29 70 -30 8 -5 22 -86 37 -204 25 -203 77
-395 130 -485 51 -89 179 -174 328 -221 31 -10 57 -21 57 -26 0 -22 -73 -149
-93 -162 -35 -22 -549 -5 -717 24 -151 26 -896 213 -1215 305 -259 74 -1414
457 -1780 590 -494 179 -902 349 -1225 510 -291 145 -423 203 -601 264 -96 32
-241 86 -324 118 -82 33 -187 72 -232 87 -50 17 -114 49 -167 84 -134 89 -373
309 -542 497 -166 187 -256 275 -444 440 -69 61 -192 170 -275 244 -231 206
-538 430 -771 564 -204 118 -441 209 -654 254 -293 60 -791 53 -1050 -16 -157
-42 -365 -120 -450 -169 -180 -104 -281 -236 -281 -369 -1 -177 129 -279 531
-418 89 -30 168 -59 177 -63 11 -7 -12 -24 -89 -67 -293 -165 -427 -302 -474
-485 -37 -143 23 -255 166 -313 80 -32 332 -31 507 1 66 12 128 22 137 22 10
0 -1 -21 -35 -66 -199 -263 -176 -499 56 -579 75 -26 222 -30 335 -11 186 33
353 102 710 295 316 171 355 181 379 99 20 -66 76 -167 129 -231 122 -149 388
-324 710 -470 189 -86 262 -150 247 -219 -4 -18 -27 -71 -50 -118 -64 -127
-74 -173 -86 -377 -16 -279 4 -340 139 -443 69 -53 71 -56 52 -70 -11 -8 -107
-62 -212 -119 -409 -221 -538 -296 -688 -396 -455 -305 -834 -678 -1042 -1027
-125 -210 -205 -401 -356 -853 -209 -626 -275 -947 -290 -1422 -6 -182 -9
-204 -28 -230 -40 -54 -102 -73 -305 -92 -158 -15 -566 -99 -1094 -226 -82
-20 -253 -60 -380 -90 -509 -118 -769 -233 -838 -370 -17 -34 -25 -269 -12
-371 15 -119 -2 -128 -287 -160 -122 -13 -261 -31 -308 -39 -199 -35 -221 -22
-275 160 -123 411 -251 624 -605 1003 -390 419 -645 610 -1002 751 -127 51
-197 91 -276 160 -67 58 -115 81 -172 81 -171 0 -390 -295 -390 -525 0 -121
47 -205 229 -405 218 -239 385 -458 508 -662 30 -51 111 -204 179 -340 69
-137 146 -288 173 -336 97 -174 166 -389 215 -667 46 -256 65 -338 92 -378 46
-71 53 -72 474 -75 379 -4 521 4 670 34 135 28 225 62 288 109 112 82 121 85
328 95 145 8 192 7 212 -2 14 -7 44 -40 66 -73 30 -43 54 -66 87 -83 l47 -23
63 27 c60 25 70 26 164 20 82 -6 115 -3 186 14 79 18 90 19 135 5 70 -21 104
-20 104 4 0 18 2 19 28 5 27 -14 253 -21 239 -7 -12 12 15 33 43 33 15 0 35 9
45 20 21 23 55 27 55 5 0 -35 94 -37 253 -6 59 12 134 21 165 21 38 0 67 6 87
19 24 14 44 17 88 13 42 -3 63 0 82 12 22 14 28 15 48 2 40 -25 77 -27 200
-10 109 15 155 15 427 5 305 -12 388 -11 1275 19 495 16 740 32 1210 78 149
15 262 19 525 17 l335 -1 80 -41 c211 -107 418 -108 840 -8 105 25 216 52 249
60 l58 14 -6 -32 c-4 -18 -32 -86 -64 -152 -53 -112 -57 -125 -57 -192 0 -65
3 -74 29 -102 42 -44 86 -61 154 -61 73 0 137 20 306 94 71 31 131 55 134 52
2 -3 -3 -35 -12 -72 -47 -187 -23 -301 72 -341 53 -22 181 -17 300 12 56 13
191 58 300 99 876 331 1177 436 1423 500 202 52 314 72 624 110 154 20 327 47
385 61 134 34 178 30 248 -18 29 -20 68 -39 85 -41 18 -3 244 -10 502 -16 259
-5 538 -12 620 -15 83 -3 274 0 425 5 151 6 430 14 620 20 389 10 499 22 754
80 215 49 293 60 369 49 35 -4 70 -3 87 2 20 8 43 6 83 -6 59 -17 89 -11 101
20 5 14 10 13 35 -6 36 -27 70 -22 179 25 43 18 100 41 127 51 31 11 67 35 95
64 54 55 75 112 121 324 37 174 39 244 10 311 -16 37 -18 47 -7 43 34 -13 48
43 35 145 -7 61 -6 104 7 196 19 135 20 263 4 342 -6 30 -15 179 -20 330 -7
218 -15 319 -38 485 -17 116 -33 239 -37 275 -9 95 -32 208 -71 355 -20 72
-51 210 -70 308 -20 100 -47 203 -61 235 -16 36 -28 87 -33 138 -6 64 -14 90
-39 128 -46 73 -65 141 -135 491 -79 389 -96 449 -193 685 -41 102 -113 297
-159 433 -47 137 -100 281 -119 322 -36 76 -91 135 -125 135 -18 0 -19 5 -14
38 5 29 0 50 -16 82 -22 42 -23 43 -34 22 -12 -22 -12 -22 -24 10 -12 33 -159
191 -221 238 -42 32 -51 71 -51 235 0 201 32 314 97 344 16 7 69 17 120 21
109 10 168 37 247 116 86 86 136 219 121 323 -3 25 -35 106 -71 179 -40 82
-67 151 -71 180 -7 62 19 155 109 387 149 384 314 915 434 1400 75 303 88 439
59 610 -33 190 -115 326 -314 526 -309 309 -580 452 -876 465 -89 3 -124 1
-184 -16z m-10301 -1075 c327 -47 590 -156 945 -390 273 -180 416 -295 792
-637 479 -434 670 -573 918 -662 145 -53 163 -62 185 -98 46 -75 18 -168 -105
-353 -47 -70 -108 -172 -137 -227 -57 -109 -117 -185 -153 -194 -26 -7 -71 14
-100 46 -30 33 -157 129 -270 203 -55 36 -207 122 -339 192 -131 69 -273 149
-315 177 -199 131 -314 256 -360 391 -66 191 -118 207 -332 101 -182 -90 -527
-236 -681 -289 -161 -55 -337 -95 -421 -95 -56 0 -68 3 -77 20 -15 27 0 52 53
88 53 36 325 175 521 267 180 84 252 142 286 231 22 59 26 143 10 175 -6 10
-25 26 -42 35 -38 20 -81 13 -161 -27 -32 -17 -92 -39 -132 -49 -89 -23 -345
-55 -605 -75 -107 -8 -239 -24 -292 -35 -53 -11 -121 -20 -150 -20 -55 0 -98
20 -98 45 0 35 153 128 305 186 165 62 593 168 724 178 122 10 154 22 203 81
56 65 74 160 42 221 -26 51 -81 69 -211 69 -244 0 -663 105 -1065 266 -54 21
-98 42 -98 46 0 12 164 69 280 98 100 24 179 37 330 54 78 9 442 -4 550 -19z
m11306 -47 c69 -61 78 -129 19 -144 -37 -9 -65 -50 -65 -94 0 -21 14 -78 30
-128 61 -184 36 -242 -117 -272 -34 -7 -72 -21 -84 -33 -20 -18 -21 -25 -13
-81 4 -34 8 -91 9 -128 0 -83 -13 -99 -111 -134 -110 -40 -118 -55 -89 -164
19 -72 19 -129 0 -136 -28 -11 -79 30 -109 89 -23 44 -30 75 -34 135 -7 126
19 164 131 193 82 20 88 40 57 184 -14 67 -4 139 26 174 23 28 66 44 152 57
23 3 42 10 42 14 0 5 -12 46 -27 92 -39 119 -38 203 4 283 40 77 87 121 130
124 7 1 29 -14 49 -31z m-1941 -1262 c65 -30 114 -72 214 -183 133 -147 216
-194 384 -214 81 -10 119 -9 289 10 157 18 207 20 253 12 173 -32 203 -141
116 -415 -49 -156 -65 -237 -56 -291 13 -84 51 -110 180 -124 126 -15 262 -84
306 -154 50 -83 -9 -172 -129 -192 -43 -7 -43 -7 -106 59 -34 36 -71 66 -81
66 -64 0 -159 -102 -224 -241 -51 -108 -74 -195 -110 -408 -16 -96 -35 -179
-41 -185 -7 -7 -58 -11 -138 -12 -190 -1 -278 -34 -578 -214 -187 -113 -240
-126 -341 -84 -40 16 -42 36 -12 113 53 141 88 182 205 237 125 60 168 116
144 188 -25 76 -112 122 -305 161 -323 64 -376 151 -392 645 -9 290 5 383 136
900 74 294 78 307 108 330 36 28 113 27 178 -4z m-558 -788 c-3 -13 -13 -66
-23 -118 -9 -52 -18 -96 -19 -98 -9 -10 -67 33 -80 58 -33 64 -8 137 59 166
49 21 69 18 63 -8z m-2517 -3053 c247 -101 539 -145 966 -145 171 0 214 -3
214 -13 0 -8 -34 -130 -75 -273 -100 -342 -169 -600 -189 -702 -23 -113 -52
-187 -83 -212 -14 -11 -29 -20 -34 -20 -27 0 -83 73 -141 182 -176 333 -537
881 -760 1155 -32 39 -58 73 -58 76 0 10 62 -9 160 -48z m3210 -567 c21 -50
26 -89 45 -428 15 -259 26 -342 89 -715 51 -305 60 -402 52 -608 -10 -256 -30
-341 -90 -381 -14 -9 -70 -25 -124 -36 -54 -11 -160 -38 -235 -60 -323 -96
-740 -176 -1242 -240 -132 -16 -267 -37 -300 -44 -159 -38 -448 -128 -515
-160 -41 -20 -81 -36 -89 -36 -23 0 96 116 169 165 98 65 221 123 355 168 110
37 130 40 240 43 66 1 152 9 192 18 40 9 182 32 315 51 134 20 326 49 428 65
102 16 232 34 290 40 238 24 339 63 394 153 24 39 30 62 34 125 5 89 -6 170
-81 582 l-52 285 0 270 c0 189 3 275 11 285 7 9 15 76 18 160 9 186 10 192 29
221 9 13 20 45 23 71 4 26 11 48 16 48 5 0 17 -19 28 -42z m-6517 -30 c197
-64 272 -171 442 -625 82 -218 123 -360 170 -584 20 -96 47 -213 60 -261 28
-96 31 -143 13 -155 -7 -4 -101 -8 -208 -9 -184 -2 -643 -38 -807 -64 -83 -13
-175 -36 -227 -56 -21 -8 -41 -13 -44 -10 -10 10 51 515 94 776 14 85 41 232
60 325 19 94 48 241 65 328 16 87 41 187 55 222 27 67 75 121 117 129 12 3 31
7 42 9 33 7 106 -4 168 -25z m-7780 -2594 c131 -45 229 -243 197 -399 -6 -31
-41 -113 -76 -183 -95 -187 -91 -212 44 -282 69 -36 132 -99 132 -130 0 -30
-42 -68 -85 -76 -58 -10 -156 1 -202 24 -89 46 -128 132 -121 271 5 96 17 126
99 247 62 90 79 132 79 189 0 56 -18 92 -65 134 -48 42 -97 61 -175 68 -109
10 -123 28 -67 89 56 61 149 79 240 48z m6222 -7 c11 0 117 4 235 8 241 7 256
4 276 -55 20 -59 36 -260 24 -303 -19 -66 -33 -69 -215 -42 -88 14 -214 29
-280 35 -140 13 -226 32 -265 60 -36 25 -67 90 -84 172 -25 125 -4 142 169
131 66 -4 129 -7 140 -6z m5670 -323 c93 -34 123 -36 201 -14 161 44 183 26
199 -165 10 -112 45 -279 121 -575 37 -140 69 -265 71 -277 6 -27 1 -28 -237
-43 -532 -33 -987 -111 -1358 -232 -68 -22 -239 -87 -380 -145 -142 -58 -360
-143 -487 -188 -126 -46 -254 -93 -284 -105 -81 -31 -163 -48 -205 -41 l-37 6
30 47 c35 55 101 106 231 178 122 67 164 101 196 156 52 89 51 176 -2 211 -39
25 -124 12 -240 -37 -270 -113 -481 -185 -527 -178 -17 3 -6 12 53 47 244 142
294 182 340 274 23 47 30 73 30 120 0 163 -105 201 -379 137 -69 -16 -205 -43
-301 -60 -158 -28 -344 -68 -742 -162 -214 -50 -200 -25 62 113 305 160 490
238 721 304 221 64 309 78 449 71 l125 -5 96 55 c120 68 203 90 833 215 520
103 541 108 825 196 342 105 504 131 596 97z m-6235 -539 c52 -18 133 -47 180
-64 62 -23 103 -31 151 -31 77 0 121 14 204 64 98 59 149 58 175 -3 31 -75
-25 -154 -152 -215 -174 -83 -250 -85 -458 -12 -294 103 -332 102 -546 -10
-103 -54 -149 -65 -172 -42 -30 30 0 126 57 184 165 171 334 210 561 129z
m-4092 -78 c7 -5 12 -32 12 -61 0 -28 7 -107 15 -176 18 -149 19 -282 4 -297
-7 -7 -31 -9 -63 -6 -29 3 -108 -2 -176 -12 -126 -17 -285 -21 -337 -9 -78 18
-120 70 -142 172 -24 116 -3 220 53 257 14 9 56 21 93 27 111 16 292 59 378
88 116 41 130 42 163 17z"/>
<path d="M16753 10686 c-86 -72 -112 -299 -42 -362 18 -16 22 -16 54 -1 46 22
71 75 90 188 13 80 13 95 1 108 -8 9 -16 32 -18 51 -2 29 -7 35 -29 38 -17 2
-37 -6 -56 -22z"/>
<path d="M17005 10629 c-80 -71 -215 -444 -215 -597 0 -102 41 -147 160 -178
104 -26 189 -1 204 62 11 43 -11 78 -76 125 -113 82 -119 113 -58 274 47 123
80 238 80 277 0 27 -30 68 -50 68 -5 0 -25 -14 -45 -31z"/>
<path d="M17372 10608 c-51 -25 -107 -203 -100 -321 5 -83 27 -113 77 -102 68
15 114 128 115 285 1 132 -24 170 -92 138z"/>
<path d="M17266 9765 c-59 -45 -73 -49 -229 -73 -37 -6 -75 -16 -82 -22 -37
-31 -3 -111 65 -156 59 -39 165 -45 238 -14 66 28 123 92 145 161 21 64 21 98
1 127 -25 36 -69 29 -138 -23z"/>
</g>
</svg>
