<svg width="589" height="526" viewBox="0 0 589 526" fill="none" xmlns="http://www.w3.org/2000/svg">
<path fill-rule="evenodd" clip-rule="evenodd" d="M260.145 385.081C260.337 385.054 263.959 386.986 268.168 389.413C272.402 391.806 277.773 394.709 280.133 395.92C282.522 397.093 285.963 398.889 287.821 399.942C289.68 400.995 292.365 402.449 293.796 403.245C295.255 404.003 298.294 405.664 300.563 406.919C305.699 409.764 307.159 409.843 308.658 407.249C309.252 406.229 309.595 404.796 309.561 403.416C309.507 401.235 308.369 393.671 307.622 390.461C307.362 389.532 306.893 385.124 306.519 380.669C305.174 365.12 305.247 364.495 307.482 366.173C309.463 367.661 323.027 373.842 326.761 374.955C330.934 376.225 330.971 376.254 338.13 390.367C340.733 395.532 343.488 400.87 344.243 402.117C344.973 403.397 345.937 405.192 346.352 406.065C350.888 415.561 364.95 434.065 374.124 442.643C388.488 456.018 397.67 461.28 419.761 468.79C433.759 473.495 434.292 473.611 435.996 471.342C437.43 469.433 436.629 467.649 430.62 458.91C420.576 444.434 418.903 439.913 418.776 426.569C418.75 424.8 418.734 421.293 418.665 418.763C418.657 416.221 418.758 413.985 418.945 413.735C419.135 413.482 419.586 413.708 420.235 414.42C421.984 416.295 432.273 423.908 432.968 423.809C433.346 423.755 433.671 423.999 433.878 424.551C434.119 425.128 435.663 426.228 439.337 428.312C454.821 437.118 474.107 442.806 495.093 444.81C504.782 445.717 506.764 445.401 508.876 442.588C510.824 439.994 510.205 438.117 503.494 426.486C496.317 414.05 491.985 404.654 487.602 391.726C479.321 367.475 474.226 356.543 467.415 348.502C466.405 347.295 465.53 346.129 465.507 345.94C465.334 344.965 482.183 345.046 487.927 346.035C488.981 346.206 489.917 346.234 490.025 346.091C490.133 345.947 490.528 346.019 490.919 346.254C491.304 346.489 492.804 346.823 494.245 347.006C495.686 347.189 497.921 347.513 499.194 347.848C505.449 349.275 508.578 346.61 506.264 341.881C505.192 339.782 496.561 327.779 491.988 322.088C484.862 313.184 475.996 303.375 470.116 297.772C464.969 292.838 451.464 282.752 448.679 281.736C447.858 281.404 446.302 280.626 445.272 279.965C443.129 278.693 440.64 277.504 436.097 275.672C434.393 275.013 432.754 274.344 432.413 274.2C425.439 271.33 411.738 268.032 405.235 267.607C403.611 267.517 401.99 267.423 401.629 267.377C401.206 267.343 400.794 266.466 400.53 265.085C400.287 263.833 399.892 262.407 399.657 261.893C398.836 260.207 392.804 250.83 390.075 247.031L387.415 243.289L393.193 242.271C396.367 241.722 404.039 240.889 410.288 240.449C425.739 239.314 430.527 237.89 431.212 234.348C431.764 231.439 430.323 229.453 419.025 217.701C416.683 215.268 411.548 209.721 407.619 205.418C398.384 195.274 392.888 189.68 387.886 185.529C381.849 180.435 381.129 180.118 374.396 180.077C371.241 180.074 366.761 180.039 364.446 180.045C358.413 179.968 350.924 180.713 350.885 181.364C350.859 181.627 350.73 181.642 350.622 181.337C350.335 180.672 341.831 182.234 338.145 183.693L335.278 184.811L330.771 180.977C322.967 174.331 301.173 158.471 290.122 151.416C274.352 141.266 257.907 133.371 233.139 124.016C220.486 119.252 208.256 115.421 197.058 112.766C194.363 112.15 192.056 111.547 191.949 111.467C191.843 111.387 189.642 110.863 187.056 110.33C184.471 109.796 182.307 109.3 182.197 109.218C182.088 109.136 177.62 108.259 172.235 107.32C160.87 105.267 149.808 103.784 139.55 102.958C135.537 102.594 130.814 102.206 129.059 102.071C127.3 101.933 124.82 101.708 123.514 101.573C119.169 101.131 103.621 99.9939 97.8771 99.6837C94.7302 99.5203 91.775 99.3296 91.288 99.3011C90.8267 99.2384 88.7539 99.1483 86.6836 99.0548C84.645 98.9904 81.5699 98.881 79.949 98.7877C78.2998 98.7321 75.2606 98.8743 73.1696 99.1078C68.8875 99.5583 66.7223 100.86 65.7145 103.485C64.5849 106.415 65.3318 108.72 71.2127 121.307C73.1389 125.348 75.4625 130.357 76.426 132.381C80.6312 141.569 82.8088 146.024 87.6642 155.7C95.2734 170.939 95.1281 170.605 97.9574 175.774C99.3905 178.369 101.678 182.457 102.983 184.845C104.289 187.233 105.971 190.245 106.732 191.491C107.462 192.772 109.588 196.397 111.414 199.517C119.663 213.604 130.086 228.472 143.525 245.326C148.975 252.179 159.931 263.786 169.699 273.149C189.776 292.279 212.157 309.082 229.197 317.767C231.179 318.805 233.433 319.93 234.125 320.284C235.271 320.861 235.388 321.232 235.467 324.277C235.58 331.41 237.829 342.677 240.897 351.348C244.362 361.223 254.665 380.677 257.9 383.502C258.918 384.384 259.954 385.108 260.145 385.081ZM257.907 371.847C247.451 353.117 243.958 343.956 241.514 328.823L240.805 324.288L243.086 325.605C244.359 326.389 249.547 329.835 254.713 333.318C259.841 336.772 264.725 340.102 265.57 340.624C278.744 349.049 289.243 356.311 294.029 360.3L299.499 364.803L299.568 367.562C299.78 374.036 300.616 383.285 301.901 392.308C302.63 397.645 303.158 402.044 303.058 402.028C302.866 402.055 297.596 399.168 286.522 393.048C284.106 391.683 281.674 390.425 281.088 390.151C280.503 389.883 279.42 389.294 278.681 388.852C275.985 387.112 268.726 382.897 267.101 382.132C263.296 380.286 261.453 378.229 257.907 371.847ZM385.72 444.083C380.809 439.662 375.123 434.099 373.367 431.935C372.663 431.069 371.807 430.255 371.378 430.158C371.008 430.051 370.783 429.823 370.891 429.68C370.999 429.536 370.487 428.643 369.727 427.623C368.98 426.666 367.476 424.692 366.405 423.267C365.322 421.78 364.063 420.379 363.597 420.03C363.138 419.744 362.857 419.362 362.993 419.18C363.237 418.855 361.434 416.602 360.29 415.797C359.965 415.552 359.759 415.227 359.867 415.083C359.975 414.94 359.3 413.587 358.311 412.053C356.23 408.746 352.619 402.593 347.889 394.253C340.822 381.9 337.389 376.786 334.758 374.81C333.461 373.836 333.696 372.996 335.788 371.185C336.674 370.384 338.646 368.654 340.164 367.31C341.678 365.97 343.284 364.58 343.654 364.237C344.403 363.617 344.437 363.643 347.141 367.476C348.68 369.702 351.744 375.384 354.374 380.741C359.381 391.264 360.874 393.851 366.09 401.77C370.153 407.919 375.25 414.117 381.442 420.51C386.576 425.831 387.441 426.481 389.399 426.425C390.75 426.428 391.1 426.183 391.905 424.812C392.417 423.902 392.943 421.926 393.062 420.271C393.189 418.676 393.606 416.168 393.986 414.763C395.765 407.59 396.817 398.684 396.531 392.379C396.479 390.874 396.542 389.514 396.704 389.298C397.11 388.758 405.015 390.466 410.018 392.135C412.523 393.004 417.347 394.989 420.798 396.622C434.116 402.902 439.679 405.329 447.951 408.5C459.107 412.708 462.671 413.071 464.366 410.058C465.295 408.443 465.269 408.028 463.495 399.43C462.065 392.325 460.563 387.419 457.697 380.425C451.261 364.601 442.198 352.724 426.936 340.023C424.746 338.208 422.323 336.111 421.574 335.377L420.232 334.085L424.985 331.96C431.405 329.118 434.931 328.549 443.357 328.957C451.985 329.404 453.309 329.216 454.572 327.456C456.98 324.02 453.943 319.433 444.573 312.399C435.986 305.897 422.297 298.151 413.107 294.633C411.81 294.108 409.726 293.277 408.538 292.835C407.313 292.364 404.356 291.498 401.897 290.947L397.471 289.935L398.21 288.125C400.079 283.61 400.929 281.203 402.01 277.054C402.662 274.611 403.248 272.627 403.311 272.621C404.843 272.754 410.538 273.878 410.901 274.151C411.154 274.341 411.406 274.305 411.404 274.079C411.44 273.882 411.729 273.874 412.117 274.106C412.47 274.313 414.865 275.099 417.409 275.767C428.027 278.667 441.246 284.252 448.024 288.667C454.385 292.881 455.394 293.639 460.154 297.662C470.083 306.133 477.778 314.501 491.599 331.978C494.815 336.026 497.997 340.726 497.778 341.017C497.671 341.161 495.586 341.008 493.09 340.654C483.149 339.334 474.621 339.132 464.83 340.006C458.951 340.553 458.126 340.832 457.058 342.625C456.463 343.645 457.315 346.709 458.559 347.98C462.884 352.356 465.263 355.266 467.011 358.27C469.12 361.769 471.992 367.928 473.459 371.903C475.288 376.824 480.903 392.765 482.4 397.158C484.713 404.133 487.451 410.7 490.906 417.58C494.239 424.252 498.912 432.667 499.559 433.153C500.281 433.695 502.097 438.103 501.657 438.163C501.116 438.207 494.373 437.43 487.746 436.57C477.209 435.139 462.339 431.075 452.001 426.755C443.061 422.975 439.338 420.8 429.695 413.672C424.829 410.019 420.377 406.789 419.808 406.421C418.564 405.598 417.716 405.979 415.517 408.159L413.922 409.835L413.43 418.145C412.545 433.208 412.689 438.047 414.4 443.73C415.506 447.659 418.75 453.701 422.918 459.71C425.062 462.785 426.098 464.633 425.708 464.625C425.347 464.578 422.786 463.784 420.084 462.879C417.341 461.949 414.918 461.2 414.66 461.172C414.362 461.12 413.786 460.912 413.363 460.648C412.904 460.362 409.828 458.898 406.487 457.348C396.695 452.885 392.838 450.439 385.72 444.083ZM191.273 284.562C176.757 272.144 159.763 254.986 148.845 241.604C135.323 225.083 121.378 204.242 109.797 183.261C108.33 180.64 106.537 177.319 105.729 175.921C103.729 172.278 103.055 170.702 103.308 170.437C103.424 170.353 104.614 169.673 105.869 168.978C113.098 165.052 123.633 154.249 129.57 144.616C134.461 136.677 137.195 129.429 139.753 117.768C140.603 114.007 141.345 110.845 141.453 110.701C142.21 109.692 173.623 114.623 185.34 117.555C188.081 118.259 194.956 119.985 200.636 121.43C210.415 123.87 221.618 127.487 231.865 131.408C240.995 134.934 243.038 135.741 246.791 137.429C248.854 138.358 251.558 139.489 252.786 139.956C263.916 144.197 279.246 152.609 293.655 162.469C302.819 168.729 329.246 188.405 330.057 189.576C330.309 189.989 330.948 191.09 331.473 192.046C331.997 193.001 334.257 195.543 336.5 197.736C338.718 199.964 343.06 204.465 346.141 207.795C349.223 211.125 353.07 215.309 354.698 217.039C356.329 218.772 359.299 222.244 361.355 224.686C363.409 227.133 365.733 229.889 366.606 230.828C367.442 231.739 369.534 233.984 371.183 235.843C372.832 237.702 375.428 240.325 377.014 241.741C379.78 244.214 381.427 246.745 380.777 247.611C380.615 247.827 379.739 251.396 378.789 255.59C376.565 265.758 375.663 269.361 374.535 272.517C372.685 277.833 368.327 286.794 364.688 292.688C363.172 295.156 363.064 295.3 362.525 294.671C362.248 294.291 360.057 291.351 357.67 288.152C349.481 277.214 340.779 267.636 332.02 259.93C326.065 254.726 325.057 254.194 321.973 254.923C320.475 255.265 320.071 255.582 319.367 256.969C317.689 260.102 314.885 263.466 308.334 270.16C302.688 275.955 296.536 284.071 295.516 287.083C294.642 289.75 294.998 292.725 296.523 294.828C298.135 297.108 303.65 300.575 314.916 306.438C327.215 312.799 344.539 322.312 344.555 322.661C344.582 322.852 343.607 323.923 342.364 325.13C341.18 326.329 339.269 328.276 338.186 329.491C328.833 339.774 308.088 357.788 305.547 357.796C305.097 357.796 303.662 357.226 302.439 356.533C301.237 355.802 299.4 354.872 298.363 354.377C297.302 353.917 293.048 351.173 288.865 348.262C284.685 345.348 278.277 341.046 274.656 338.664C271.06 336.248 265.868 332.8 263.204 331.024C260.502 329.22 258.194 327.712 258.034 327.704C257.87 327.694 255.476 326.008 252.706 323.988C247.162 319.883 241.56 316.689 240.118 316.735C239.64 316.773 239.243 316.924 239.233 317.088C239.396 317.997 237.339 317.357 234.512 315.571C232.736 314.409 229.457 312.397 227.204 311.042C217.197 304.985 202.806 294.346 191.273 284.562ZM382.719 412.8C378.618 408.426 376.495 405.702 372.745 400.184C367.943 393.144 367.133 391.744 361.748 381.504C355.545 369.574 352.102 364.175 349.58 362.281L347.633 360.819L348.768 359.306C349.418 358.441 351.511 356.181 353.448 354.199C357.778 349.787 365.13 341.271 367.7 337.619L369.63 334.9L373.063 335.958C380.201 338.16 382.759 338.053 384.681 335.493C386.169 333.511 385.667 330.652 382.784 325.105L380.605 320.874L382.029 318.898C385.403 314.105 390.969 304.361 393.099 299.421C393.93 297.567 394.804 296.024 395.056 295.988C395.751 295.889 405.809 298.936 411.71 301.054C422.391 304.846 433.557 311.142 442.539 318.395C446.287 321.434 448.326 323.302 448.357 323.78C448.42 324.223 448.259 324.439 447.986 324.346C447.716 324.256 444.723 324.038 441.344 323.812C434.718 323.402 429.212 324.057 424.603 325.841C423.081 326.442 419.83 327.614 417.417 328.505C412.333 330.322 411.17 331.423 411.437 333.989C411.554 335.259 411.924 335.821 413.327 336.875C416.968 339.608 426.995 348.319 430.437 351.696C437.583 358.693 446.022 370.273 449.615 378.097C453.288 386.04 457.24 398.196 457.822 403.422L458.048 405.223L455.571 404.546C450.065 402.949 448.883 402.57 442.745 400.161C436.097 397.534 430.947 395.305 425.675 392.642C418.111 388.825 410.48 386.081 403.07 384.462C395.13 382.728 392.101 383.156 391.261 386.078C391.064 386.718 391.009 390.17 391.085 393.668C391.304 400.88 390.844 405.1 389.22 410.414C388.596 412.37 387.919 414.847 387.642 415.822L387.199 417.688L386.351 416.715C385.906 416.209 384.241 414.451 382.719 412.8ZM311.979 360.255C312.033 360.183 312.97 359.533 314.071 358.893C316.677 357.297 316.703 357.262 316.398 356.471C316.229 355.948 316.317 355.902 316.751 356.228C317.077 356.473 317.652 356.455 317.996 356.146C318.609 355.707 318.953 355.848 320.527 357.201C322.075 358.588 327.986 362.127 333.27 364.853L334.657 365.557L333.078 367.133C332.205 367.997 331.247 368.744 330.958 368.752C330.678 368.825 328.425 367.92 325.885 366.8C323.37 365.645 319.53 364.003 317.412 363.146C313.656 361.626 311.709 360.614 311.979 360.255ZM322.921 352.743C323.028 352.374 324.755 350.679 326.765 348.978L330.419 345.915L331.908 346.861C332.73 347.42 335.998 349.146 339.16 350.787C342.313 352.367 345.099 353.838 345.314 354C345.567 354.19 345.179 354.857 344.096 356.071C340.804 359.63 338.397 361.938 337.764 362.025C337.009 362.132 327.961 357.142 324.838 354.916C323.3 353.814 322.795 353.21 322.921 352.743ZM334.31 342.528C334.484 342.374 335.744 341.067 337.241 339.601L339.918 336.934L343.657 339.458C345.692 340.874 348.721 342.699 350.352 343.527C351.983 344.355 353.354 345.16 353.343 345.323C353.435 345.729 351.773 347.864 349.842 349.908L348.209 351.556L345.434 349.921C336.708 344.665 334.041 342.887 334.31 342.528ZM93.1927 151.402C89.5924 144.187 86.2752 137.416 85.8367 136.354C85.3665 135.326 84.2312 132.783 83.2711 130.762C82.3333 128.704 81.0022 125.901 80.3525 124.514C77.4715 118.295 73.0143 108.238 72.7254 107.347C72.4708 106.481 72.5727 106.274 73.3474 106.069C75.0336 105.698 98.5306 106.831 112.579 108.02C114.438 108.174 118.565 108.458 121.818 108.701C128.642 109.147 135.285 109.907 135.33 110.225C135.49 111.587 129.947 128.278 127.771 132.9C123.126 142.994 114.211 154.34 105.861 160.806C103.451 162.662 100.09 164.816 99.8743 164.654C99.7674 164.568 96.7587 158.59 93.1927 151.402ZM345.206 331.315C346.236 330.173 347.344 328.918 347.667 328.486C348.235 327.73 348.379 327.838 354.361 332.329L360.524 336.957L358.385 339.578L356.245 342.199L354.28 341.061C353.188 340.412 350.268 338.444 347.817 336.604L343.294 333.321L345.206 331.315ZM301.833 288.947C302.221 286.926 310.288 275.961 315.897 269.915C318.152 267.439 320.762 264.491 321.599 263.376C322.437 262.26 323.304 261.333 323.505 261.365C324.098 261.473 331.13 267.652 333.443 270.122C341.29 278.438 350.453 288.983 350.974 290.385C351.063 290.565 351.823 291.585 352.648 292.659C358.901 300.624 369.981 316.493 372.673 321.388C376.564 328.365 377.205 329.692 377.015 329.945C376.879 330.127 376.483 330.055 376.086 329.757C375.727 329.487 374.527 328.982 373.42 328.654C369.68 327.478 355.521 320.513 347.711 316.056C344.134 313.992 330.36 306.807 316.755 299.862C310.337 296.621 307.114 294.763 304.761 292.944C301.596 290.46 301.561 290.434 301.833 288.947ZM355.928 328.374C357.27 328.761 364.436 332.509 364.389 332.87C364.391 333.096 364.084 333.427 363.73 333.67C363.197 334.003 362.433 333.595 359.252 331.153C357.161 329.583 355.627 328.319 355.928 328.374ZM371.776 307.417L366.461 299.707L367.463 298.372C368.113 297.506 368.672 297.14 368.922 297.327C371.128 299.043 381.309 309.501 381.293 310.051C381.246 310.412 380.758 311.511 380.191 312.494C379.659 313.502 378.921 314.863 378.631 315.549C378.136 316.585 377.982 316.641 377.594 315.953C377.305 315.512 374.731 311.663 371.776 307.417ZM381.054 303.391C379.803 302.056 378.547 300.722 378.259 300.506C377.997 300.256 376.249 298.601 374.395 296.872C371.89 294.429 371.108 293.446 371.296 292.967C371.431 292.56 372.687 290.516 374.085 288.355L376.645 284.418L377.527 285.417C378.023 285.961 380.39 288.809 382.813 291.811L387.193 297.239L386.596 298.932C386.281 299.878 385.703 301.247 385.353 301.942C384.977 302.671 384.44 303.906 384.133 304.692C383.817 305.412 383.521 306.035 383.449 305.981C383.377 305.927 382.316 304.789 381.054 303.391ZM384.803 288.113C382.749 285.218 380.561 282.28 379.922 281.629C378.833 280.527 378.823 280.242 379.49 278.597C379.896 277.607 380.644 275.407 381.177 273.72C381.702 271.974 382.26 270.702 382.442 270.838C383.198 271.406 392.063 285.5 392.018 286.087C391.971 286.448 391.583 287.564 391.126 288.629C390.632 289.665 389.955 291.243 389.565 292.133C389.204 292.992 388.816 293.658 388.707 293.576C388.597 293.494 386.83 291.043 384.803 288.113ZM391.719 275.894C389.892 272.547 385.992 267.307 384.514 266.197C383.829 265.683 383.846 264.685 384.806 259.878C385.456 256.759 386.018 254.137 386.044 254.102C386.072 254.065 388.08 256.872 390.502 260.323C392.935 263.84 395.465 267.377 396.159 268.177C397.33 269.618 397.32 269.781 396.354 272.722C395.783 274.38 395.107 276.634 394.816 277.77C394.509 279.005 394.187 279.662 393.934 279.472C393.722 279.313 392.721 277.716 391.719 275.894ZM371.555 226.261C368.356 222.788 364.499 218.539 363.031 216.816C361.498 215.103 359.068 212.487 357.536 210.999C356.004 209.512 353.123 206.444 351.096 204.189C349.07 201.935 346.753 199.462 345.932 198.68C343.084 195.867 337.437 190.103 337.407 189.914C337.238 189.391 342.557 188.087 347.794 187.342C356.122 186.156 366.43 185.719 375.407 186.15L378.714 186.321L382.211 188.947C387.187 192.683 391.328 196.697 397.465 203.611C400.383 206.931 403.167 209.979 403.673 210.359C404.151 210.771 404.537 211.233 404.565 211.424C404.572 211.714 410.672 218.15 420.448 228.251C422.404 230.228 423.952 232.065 423.862 232.334C423.798 232.57 417.829 233.386 410.629 234.123C403.425 234.858 394.175 235.918 390.131 236.429L382.737 237.417L380.042 234.998C378.566 233.665 374.729 229.767 371.555 226.261Z" fill="black"/>
<path fill-rule="evenodd" clip-rule="evenodd" d="M213.606 295.129C214.939 295.456 216.209 293.985 215.655 292.777C215.185 291.75 211.517 287.926 200.088 276.578C183.059 259.624 179.264 256.041 177.619 255.31C175.392 254.37 173.139 256.623 174.265 258.651C175 259.995 177.298 262.565 182.636 267.922C185.113 270.402 188.123 273.449 189.393 274.686C197.053 282.417 211.576 294.675 213.606 295.129Z" fill="black"/>
<path fill-rule="evenodd" clip-rule="evenodd" d="M166.961 248.777C168.041 248.914 169.504 247.193 169.226 246.138C169.055 245.389 165.461 240.946 164.308 240.081C163.911 239.783 163.144 239.828 162.513 240.14C160.81 241.061 160.97 242.872 162.978 245.45C164.915 247.974 165.689 248.668 166.961 248.777Z" fill="black"/>
<path fill-rule="evenodd" clip-rule="evenodd" d="M150.232 229.399C150.863 229.535 151.646 229.39 152.088 229.101C153.404 228.174 153.072 226.287 151.173 223.791C150.18 222.484 149.181 221.113 149.03 220.716C148.713 220.082 142.024 210.832 140.021 208.317C139.545 207.676 137.204 204.565 134.814 201.363C132.455 198.125 129.994 195.095 129.372 194.569C126.789 192.458 124.278 194.747 125.368 198.327C125.702 199.536 130.252 206.162 134.673 211.906C142.294 221.797 143.475 223.304 144.592 224.367C145.194 224.99 146.447 226.322 147.392 227.315C148.274 228.315 149.042 229.174 149.104 229.162C149.104 229.162 149.635 229.288 150.232 229.399Z" fill="black"/>
<path fill-rule="evenodd" clip-rule="evenodd" d="M181.937 227.105C196.023 233.567 210.931 231.799 222.821 222.35C227.08 219.008 231.533 212.998 233.401 208.258C238.726 194.559 235.319 179.881 224.49 169.61C215.048 160.717 201.835 157.448 188.86 160.838C179.048 163.393 172.188 168.554 167.046 177.205C165.692 179.457 164.105 182.776 163.466 184.603C160.35 193.48 161.509 204.55 166.464 213.118C169.49 218.381 176.249 224.467 181.937 227.105ZM173.569 212.877C171.363 210.263 168.578 204.736 167.708 201.091C166.33 195.492 166.965 188.189 169.269 182.876C173.084 174.187 182.671 167.349 193.056 165.905C201.799 164.694 210.056 166.832 217.149 172.103C227.447 179.782 231.589 192.133 227.914 204.084C226.587 208.332 222.471 214.484 218.85 217.512C212.232 223.026 203.413 225.534 194.515 224.322C189.097 223.577 185.575 222.345 181.421 219.617C177.417 217.06 176.415 216.142 173.569 212.877Z" fill="black"/>
<path fill-rule="evenodd" clip-rule="evenodd" d="M189.723 214.86C195.042 217.162 202.703 217.392 207.832 215.436C214.946 212.719 220.602 205.412 221.146 198.152C221.608 192.356 219.468 185.677 215.576 180.726C213.504 178.154 208.638 174.5 205.358 173.167C197.147 169.763 186.908 171.092 180.703 176.355C173.69 182.247 171.707 192.991 176.011 201.52C177.037 203.532 178.668 206.164 179.643 207.345C181.889 210.048 186.434 213.46 189.723 214.86ZM183.238 203.227C181.42 200.845 179.638 196.013 179.396 192.957C179.17 189.802 180.094 186.097 181.871 183.203C185.379 177.554 192.223 174.746 199.333 176.081C202.505 176.66 202.747 176.788 207.144 180.089C211.651 183.473 211.685 183.499 213.399 186.926C216.668 193.383 216.284 199.746 212.278 205.081C210.493 207.46 209.861 208.002 207.184 209.315C203.848 210.979 199.639 211.709 196.329 211.086C191.483 210.263 186.067 207.042 183.238 203.227Z" fill="black"/>
<path fill-rule="evenodd" clip-rule="evenodd" d="M350.272 228.936C350.955 228.775 351.199 228.45 351.426 227.55C351.839 225.495 346.734 219.238 334.569 207.059C331.643 204.129 327.983 200.594 326.371 199.213C324.785 197.797 321.874 195.216 319.955 193.497C314.232 188.354 312.484 187.154 310.972 187.373C309.581 187.57 308.554 188.939 309.158 189.789C309.4 190.142 309.555 190.087 309.589 189.663C309.652 189.202 309.743 189.158 309.86 189.53C310.006 189.864 309.914 190.356 309.695 190.647C309.48 190.935 309.533 191.312 309.787 191.502C310.074 191.718 311.687 193.325 313.453 195.101C315.184 196.85 317.307 198.898 318.13 199.683C318.976 200.43 320.805 202.199 322.231 203.607C323.68 204.978 327.394 208.441 330.538 211.31C339.666 219.571 345.768 225.335 347.071 226.822C348.74 228.797 349.306 229.169 350.272 228.936Z" fill="black"/>
<path fill-rule="evenodd" clip-rule="evenodd" d="M275.292 166.271C277.354 166.974 278.103 166.803 278.908 165.432C280.106 163.459 279.369 162.338 275.072 159.508C270.594 156.542 269.069 156.242 267.683 158.017C266.627 159.423 267.513 160.874 271.142 163.546C272.933 164.837 274.819 166.082 275.292 166.271Z" fill="black"/>
<path fill-rule="evenodd" clip-rule="evenodd" d="M297.147 179.576C298.698 179.842 300.069 178.613 299.655 177.291C299.287 176.057 293.88 171.997 292.151 171.598C290.718 171.255 289.193 172.31 289.275 173.554C289.336 174.67 295.299 179.265 297.147 179.576Z" fill="black"/>
</svg>
